<?xml version="1.0" standalone="no"?>
<!DOCTYPE svg PUBLIC "-//W3C//DTD SVG 20010904//EN"
 "http://www.w3.org/TR/2001/REC-SVG-20010904/DTD/svg10.dtd">
<svg version="1.0" xmlns="http://www.w3.org/2000/svg"
 width="700.000000pt" height="700.000000pt" viewBox="0 0 700.000000 700.000000"
 preserveAspectRatio="xMidYMid meet">
<metadata>
Created by potrace 1.14, written by Peter Selinger 2001-2017
</metadata>
<g transform="translate(0.000000,700.000000) scale(0.100000,-0.100000)"
fill="#000000" stroke="none">
<path d="M480 6597 c-63 -32 -114 -162 -127 -327 -12 -146 -5 -467 11 -570 2
-14 7 -52 11 -85 6 -59 10 -87 20 -162 14 -107 62 -346 95 -483 106 -431 242
-706 420 -855 25 -21 44 -42 42 -48 -2 -6 -24 -42 -49 -81 -49 -76 -174 -281
-186 -306 -4 -8 -13 -24 -20 -35 -19 -31 -111 -202 -157 -290 l-41 -80 209 -5
209 -5 -88 -105 c-91 -108 -211 -277 -291 -411 -100 -165 -249 -493 -250 -548
0 -14 -7 -39 -14 -57 -21 -49 -39 -177 -28 -195 4 -7 61 14 139 51 70 33 233
76 331 88 l71 8 -20 -61 c-25 -78 -44 -151 -51 -195 -4 -19 -12 -69 -19 -109
-11 -65 -13 -96 -8 -170 1 -7 7 -11 14 -8 185 81 405 158 492 173 16 2 57 9
90 15 81 15 225 14 316 -1 116 -20 349 -108 349 -132 0 -5 12 -40 26 -76 130
-331 325 -603 577 -803 78 -63 255 -179 271 -179 3 0 37 -15 78 -34 186 -87
388 -126 628 -122 236 4 411 46 611 146 240 120 409 264 609 517 27 34 122
187 157 253 45 82 117 249 128 293 17 65 186 155 328 174 90 12 233 5 347 -16
105 -21 306 -82 393 -120 23 -10 74 -32 113 -50 39 -17 74 -31 78 -31 3 0 4
60 1 133 -5 131 -23 232 -63 348 l-20 55 57 -7 c129 -15 273 -57 409 -120 35
-16 66 -29 69 -29 13 0 -15 166 -37 225 -7 18 -7 31 -1 34 11 7 -69 214 -134
343 -127 252 -305 514 -472 698 l-23 25 210 3 c115 1 210 4 210 7 0 5 -74 148
-140 270 -57 104 -216 370 -278 463 l-48 73 62 64 c55 56 144 174 144 190 0 4
8 19 19 33 51 73 140 319 196 541 45 182 106 510 120 651 4 30 8 66 10 80 19
122 28 573 13 675 -4 28 -9 61 -11 75 -12 73 -49 156 -85 188 -35 32 -41 34
-92 29 -68 -6 -82 -10 -173 -41 -232 -80 -580 -250 -922 -449 -66 -39 -129
-75 -140 -82 -88 -50 -394 -251 -471 -310 -27 -20 -62 -46 -78 -58 -91 -67
-211 -170 -283 -242 -70 -70 -86 -82 -110 -79 -15 2 -50 6 -78 9 -27 3 -70 7
-95 10 -253 26 -867 27 -1115 1 -16 -2 -61 -6 -100 -10 l-70 -7 -84 80 c-120
116 -277 235 -506 385 -110 72 -209 136 -220 143 -11 6 -67 40 -125 74 -58 34
-134 78 -170 97 -36 20 -99 54 -140 77 -290 159 -704 340 -879 385 -91 23
-136 25 -171 7z"/>
</g>
</svg>
