<?xml version="1.0" standalone="no"?>
<!DOCTYPE svg PUBLIC "-//W3C//DTD SVG 20010904//EN"
 "http://www.w3.org/TR/2001/REC-SVG-20010904/DTD/svg10.dtd">
<svg version="1.0" xmlns="http://www.w3.org/2000/svg"
 width="700.000000pt" height="700.000000pt" viewBox="0 0 700.000000 700.000000"
 preserveAspectRatio="xMidYMid meet">
<metadata>
Created by potrace 1.14, written by Peter Selinger 2001-2017
</metadata>
<g transform="translate(0.000000,700.000000) scale(0.100000,-0.100000)"
fill="#000000" stroke="none">
<path d="M5335 6985 c-44 -7 -100 -18 -125 -25 -25 -7 -55 -14 -67 -16 -48 -9
-193 -68 -283 -115 -275 -144 -515 -398 -643 -680 -39 -85 -95 -251 -103 -307
-3 -20 -7 -43 -9 -50 -27 -78 -23 -402 5 -527 5 -22 13 -60 19 -85 26 -120
112 -313 197 -441 26 -41 53 -79 59 -85 5 -6 28 -33 49 -60 74 -91 256 -245
355 -300 115 -64 144 -78 222 -109 411 -166 911 -122 1289 113 89 55 77 46
165 119 171 141 296 300 389 495 43 89 93 226 103 277 2 14 11 57 20 96 18 83
25 337 12 440 -20 146 -67 305 -135 451 -18 39 -123 215 -133 224 -4 3 -23 28
-44 55 -82 109 -257 261 -392 340 -136 80 -300 143 -458 176 -124 26 -371 33
-492 14z"/>
<path d="M3118 5937 c-24 -11 -148 -130 -736 -703 l-155 -151 -91 -27 c-303
-89 -349 -107 -425 -165 -41 -30 -79 -60 -85 -66 -6 -5 -67 -57 -136 -114 -69
-57 -134 -114 -146 -125 -12 -12 -34 -32 -50 -45 -90 -76 -246 -222 -449 -424
-197 -196 -283 -286 -395 -417 -12 -14 -34 -38 -48 -55 -15 -16 -65 -77 -110
-135 -46 -58 -89 -112 -95 -120 -18 -22 -127 -178 -162 -230 -56 -86 -35 -189
48 -226 33 -15 66 -18 193 -18 85 0 154 0 154 -1 0 -6 -34 -84 -61 -138 -136
-279 -218 -598 -220 -857 -1 -103 18 -124 178 -204 109 -54 112 -57 118 -93 3
-21 8 -54 12 -73 3 -19 7 -48 10 -65 2 -16 16 -70 29 -118 71 -255 180 -464
338 -649 135 -158 163 -164 360 -69 72 34 139 64 150 66 17 4 30 -9 66 -62 25
-38 48 -72 52 -78 4 -5 56 -75 115 -155 133 -180 201 -260 275 -326 149 -133
264 -123 418 35 68 69 215 263 265 349 11 17 23 32 28 32 5 0 68 -43 140 -96
71 -53 145 -103 165 -111 58 -24 107 -9 173 54 156 148 269 388 305 643 6 48
8 72 13 150 1 12 18 16 91 17 159 2 200 50 195 226 -3 125 -16 257 -35 367 -5
30 -12 71 -15 90 -46 278 -196 770 -357 1168 l-29 74 3 543 3 543 52 74 c29
40 58 81 65 90 7 10 28 39 46 65 18 27 72 103 120 170 174 245 211 300 221
326 6 15 9 77 8 139 -2 91 -6 118 -20 140 -24 35 -80 68 -116 68 -29 0 -129
-27 -146 -40 -13 -9 -55 -20 -55 -13 0 2 14 43 30 90 17 48 31 102 32 122 2
39 -122 422 -154 477 -33 56 -116 80 -180 51z"/>
</g>
</svg>
